<svg width="80" height="72.8" viewBox="0 0 140 128" fill="none" xmlns="http://www.w3.org/2000/svg">
<g clip-path="url(#clip0_336_46)">
<path d="M94.0175 74.6005C82.621 83.037 66.4772 82.1194 56.1615 71.7792C45.8459 61.4389 44.9155 45.2917 53.3432 33.8832L19.4958 0C-7.45619 30.1716 -6.47114 76.5316 22.4783 105.498C51.4278 134.478 97.7251 135.464 127.865 108.484L94.0175 74.6005Z" fill="#FE3263"/>
<mask id="mask0_336_46" style="mask-type:luminance" maskUnits="userSpaceOnUse" x="-1" y="0" width="129" height="129">
<path d="M94.0175 74.6005C82.621 83.037 66.4772 82.1194 56.1615 71.7792C45.8459 61.4389 44.9155 45.2917 53.3432 33.8832L19.4958 0C-7.45619 30.1716 -6.47114 76.5316 22.4783 105.498C51.4278 134.478 97.7251 135.464 127.865 108.484L94.0175 74.6005Z" fill="white"/>
</mask>
<g mask="url(#mask0_336_46)">
<path d="M37.7191 9.16248C17.9224 31.3221 18.6475 65.3559 39.9081 86.639C61.1687 107.922 95.1666 108.648 117.303 88.8304" stroke="black" stroke-linecap="round" stroke-linejoin="round"/>
</g>
<path d="M79.7889 3.1637C79.5974 3.35544 79.3921 3.53348 79.2006 3.71152C62.5642 20.3655 62.5642 47.3597 79.2006 64.0137C95.837 80.6677 122.803 80.6677 139.439 64.0137C139.631 63.8219 139.808 63.6302 139.986 63.4248L79.7889 3.1637Z" fill="#6E4AFF"/>
<path d="M70.1026 13.9011L129.63 73.4911" stroke="black" stroke-linecap="round" stroke-linejoin="round"/>
</g>
<defs>
<clipPath id="clip0_336_46">
<rect width="140" height="128" fill="white"/>
</clipPath>
</defs>
</svg>
