<svg width="300" height="400" viewBox="0 0 130 171" fill="none" xmlns="http://www.w3.org/2000/svg">
<rect width="130" height="170.388" rx="20" fill="#FFD029"/>
<path d="M60.1556 49.2287C62.3489 49.0121 64.2258 47.2445 64.0062 45.0213L63.6013 40.9219C63.3817 38.6987 61.1952 37.3325 59.002 37.5491C56.8087 37.7657 54.9318 39.5333 55.1514 41.7566L55.5563 45.8559C55.7759 48.0792 57.9624 49.4454 60.1556 49.2287Z" fill="white" stroke="black" stroke-width="2"/>
<path d="M33.6555 61.1005C35.278 59.6089 35.7154 57.0681 34.2034 55.4234L31.4155 52.3908C29.9036 50.7461 27.335 50.9687 25.7125 52.4603C24.09 53.9518 23.6526 56.4927 25.1646 58.1374L27.9525 61.1699C29.4645 62.8146 32.0331 62.592 33.6555 61.1005Z" fill="white" stroke="black" stroke-width="2"/>
<path d="M24.829 83.3214L20.7284 83.7265C18.5049 83.9461 17.138 86.1323 17.3546 88.3259C17.5713 90.5194 19.3395 92.396 21.563 92.1763L25.6605 91.7716C27.884 91.552 29.2509 89.3657 29.0343 87.1722C28.8177 84.9802 27.0538 83.1017 24.829 83.3214Z" fill="white" stroke="black" stroke-width="2"/>
<path d="M105.57 75.346L101.473 75.7508C99.2493 75.9704 97.8823 78.1566 98.099 80.3502C98.3157 82.5437 100.084 84.4203 102.307 84.2006L106.405 83.7959C108.628 83.5763 109.995 81.39 109.779 79.1965C109.562 77.0029 107.794 75.1264 105.57 75.346Z" fill="white" stroke="black" stroke-width="2"/>
<path d="M84.955 51.8928L84.9544 51.8936C83.6685 53.4631 83.8967 55.7736 85.4648 57.0611C86.2483 57.7044 87.2188 57.9701 88.1546 57.8776C89.0892 57.7853 89.989 57.3358 90.6294 56.5547C90.6294 56.5547 90.6294 56.5546 90.6294 56.5546C90.6296 56.5544 90.6298 56.5541 90.63 56.5539L93.1165 53.5258L93.1171 53.5249C94.403 51.9555 94.1748 49.645 92.6067 48.3575C91.0406 47.0716 88.7209 47.2958 87.441 48.8653L84.955 51.8928Z" fill="white" stroke="black" stroke-width="2"/>
<path d="M36.7598 83.1034L36.7598 83.1035C36.1017 93.5835 41.5213 102.553 49.6604 107.366C51.6154 108.523 52.924 110.394 53.2012 112.536L53.3257 113.498L54.2912 113.403L78.4577 111.016L79.4267 110.92L79.3569 109.949C79.2028 107.808 80.1042 105.722 81.7815 104.226L81.782 104.226C87.8543 98.8018 91.3522 90.7505 90.501 82.1335C88.9634 66.5671 73.9062 55.5781 57.8484 59.0504C46.2822 61.5491 37.4885 71.5065 36.7598 83.1034Z" fill="white" stroke="black" stroke-width="2"/>
<path d="M56.0101 122.819L55.0149 122.918L55.1132 123.913L55.154 124.326C55.481 127.636 57.1563 130.47 59.6074 132.379C62.0324 134.32 65.258 135.33 68.6275 134.997C75.3959 134.329 80.4057 128.506 79.7528 121.896L79.712 121.483L79.6137 120.488L78.6185 120.586L56.0101 122.819Z" fill="white" stroke="black" stroke-width="2"/>
</svg>
