<svg width="16" height="16" viewBox="0 0 16 16" fill="none" xmlns="http://www.w3.org/2000/svg">
<path d="M0 8.94114C5.25769 10.1471 5.64706 15.5294 5.64706 15.5294C5.64706 15.5294 6.03642 10.1471 11.2941 8.94114C6.03642 7.73521 5.64706 2.35291 5.64706 2.35291C5.64706 2.35291 5.25769 7.73521 0 8.94114Z" fill="#F7C33D"/>
<path d="M9.88232 12.4706C12.7301 13.1176 12.9411 16 12.9411 16C12.9411 16 13.1522 13.1176 16 12.4706C13.1522 11.8235 12.9411 8.94116 12.9411 8.94116C12.9411 8.94116 12.7301 11.8235 9.88232 12.4706Z" fill="#855AFF"/>
<path d="M7.52954 3.52941C10.5964 4.17647 10.8237 7.05882 10.8237 7.05882C10.8237 7.05882 11.051 4.17647 14.1178 3.52941C11.051 2.88235 10.8237 0 10.8237 0C10.8237 0 10.5964 2.88235 7.52954 3.52941Z" fill="#FE3263"/>
</svg>
