<svg width="18" height="24" viewBox="0 0 48 64" fill="none" xmlns="http://www.w3.org/2000/svg">
<path d="M24 0C17.6374 0.00844014 11.5378 2.53971 7.03876 7.03875C2.53971 11.5378 0.00844015 17.6374 0 24C0 41.23 22.36 62.8099 23.31 63.7199C23.4948 63.8995 23.7423 64 24 64C24.2577 64 24.5052 63.8995 24.69 63.7199C25.64 62.8099 48 41.23 48 24C47.9916 17.6374 45.4603 11.5378 40.9612 7.03875C36.4622 2.53971 30.3626 0.00844014 24 0ZM24 35C21.8244 35 19.6977 34.3548 17.8887 33.1461C16.0798 31.9374 14.6699 30.2195 13.8373 28.2095C13.0048 26.1995 12.7869 23.9878 13.2114 21.854C13.6358 19.7202 14.6834 17.7602 16.2218 16.2218C17.7602 14.6834 19.7202 13.6358 21.854 13.2113C23.9878 12.7869 26.1995 13.0047 28.2095 13.8373C30.2195 14.6699 31.9375 16.0798 33.1462 17.8887C34.3549 19.6976 35 21.8244 35 24C34.9983 26.9168 33.8388 29.7137 31.7762 31.7762C29.7137 33.8387 26.9168 34.9982 24 35Z" fill="#FE3263"/>
</svg>
