<svg width="32" height="32" viewBox="0 0 64 64" fill="none" xmlns="http://www.w3.org/2000/svg">
<path d="M64 32C64 30.9681 63.9494 29.9463 63.8483 28.9346H48.9888L62.9177 23.7445C62.3815 21.7515 61.6735 19.8293 60.7833 18.0082L44.1132 24.22L56.6866 11.6345C55.3817 10.0563 53.9352 8.60955 52.3572 7.30446L41.8473 17.816L48.0278 4.29972C46.2677 3.2779 44.4065 2.42807 42.4644 1.75024L35.07 17.9273V0.151755C34.0585 0.0607019 33.0368 0 32.0051 0C30.9733 0 29.9516 0.0505849 28.9401 0.151755V15.0136L23.7509 1.08252C21.7582 1.61872 19.8363 2.3269 18.0155 3.2172L24.2263 19.89L11.6428 7.31457C10.0648 8.61966 8.6183 10.0664 7.31342 11.6446L17.8233 22.1562L4.30915 15.9747C3.2875 17.7351 2.43781 19.5966 1.76008 21.539L17.9346 28.9346H0.151731C0.0606923 29.9463 0 30.9681 0 32C0 33.0319 0.0505769 34.0537 0.151731 35.0654H15.0112L1.08235 40.2555C1.61846 42.2485 2.32654 44.1707 3.21669 45.9918L19.8868 39.78L7.31342 52.3554C8.6183 53.9336 10.0648 55.3803 11.6428 56.6854L22.1527 46.1739L15.9722 59.6902C17.7323 60.712 19.5935 61.5618 21.5356 62.2396L28.93 46.0626V63.8482C29.9415 63.9393 30.9632 64 31.9949 64C33.0267 64 34.0484 63.9494 35.0599 63.8482V48.9864L40.2491 62.9175C42.2418 62.3813 44.1637 61.6731 45.9845 60.7828L39.7737 44.11L52.3471 56.6854C53.9251 55.3803 55.3716 53.9336 56.6765 52.3554L46.1666 41.8438L59.6807 48.0253C60.7024 46.2649 61.5521 44.4034 62.2298 42.461L46.0553 35.0654H63.8382C63.9292 34.0537 63.9899 33.0319 63.9899 32H64Z" fill="#FFD029"/>
<path d="M34.6328 43.1252C40.775 41.6674 44.5726 35.5055 43.115 29.3623C41.6574 23.2191 35.4965 19.4208 29.3542 20.8787C23.212 22.3365 19.4144 28.4984 20.872 34.6416C22.3296 40.7848 28.4905 44.5831 34.6328 43.1252Z" fill="#0C0C0C"/>
</svg>
