<svg width="84" height="84" viewBox="0 0 132 132" fill="none" xmlns="http://www.w3.org/2000/svg">
<rect width="132" height="132" rx="66" fill="#6E4AFF"/>
<path d="M69.1946 56.6107V53.0986V52.5986H68.6946H57.9H57.4V53.0986V90V90.5H57.9H69.1701H69.6701V90V71.6872C69.6701 69.2763 69.8947 67.0206 70.7812 65.3771C71.218 64.5673 71.8128 63.9118 72.6234 63.4548C73.4366 62.9962 74.4977 62.7203 75.8912 62.7203C77.2531 62.7203 78.2326 63.0412 78.9494 63.5483C79.6676 64.0565 80.1652 64.7824 80.5087 65.6663C81.2067 67.463 81.2299 69.7987 81.2299 71.9636V89.9306V90.4306H81.7299H93V90H93.5V89.9306V89.4306V69.7523C93.5 64.7667 92.9784 60.2534 90.9469 56.9808C88.8816 53.6538 85.3187 51.7 79.4897 51.7C74.6044 51.7 71.0898 54.0197 69.1946 56.6107Z" fill="white" stroke="black"/>
<path d="M40.35 53.05H39.85V53.55V90V90.5H40.35H51.15H51.65V90V53.55V53.05H51.15H40.35Z" fill="white" stroke="black"/>
<path d="M45.075 35.5C41.4474 35.5 38.5 38.4284 38.5 42.0435C38.5 45.6519 41.4407 48.65 45.075 48.65C48.7093 48.65 51.65 45.6519 51.65 42.0435C51.65 38.4284 48.7026 35.5 45.075 35.5Z" fill="white" stroke="black"/>
</svg>
